<svg width="711" height="403" viewBox="0 0 711 403" fill="none" xmlns="http://www.w3.org/2000/svg">
<path d="M204.647 183.683L193.449 182.938C188.22 182.938 183.741 183.683 179.261 186.672C164.329 196.381 147.157 201.604 128.49 201.604C109.824 201.604 91.9024 196.375 77.7197 186.672C73.2405 183.688 68.7613 182.938 63.5317 182.938L52.3338 183.683C21.7191 185.177 -1.42618 212.057 0.0684869 241.923L5.29768 326.297C6.04247 339.735 16.4955 350.193 29.9377 350.937C62.0417 353.922 94.8963 355.417 128.5 355.417C156.126 355.417 183.755 354.672 209.886 352.432L205.407 218.032C204.662 206.084 206.901 194.136 212.125 183.683C209.87 184.428 207.631 183.683 204.647 183.683Z" fill="#1583FD"/>
<path d="M205.394 109.016C205.394 151.489 170.962 185.923 128.487 185.923C86.0135 185.923 51.5802 151.491 51.5802 109.016C51.5802 66.5426 86.0122 32.1093 128.487 32.1093C170.96 32.1093 205.394 66.5413 205.394 109.016Z" fill="#1583FD"/>
<path d="M657.127 183.683L645.929 182.938C640.7 182.938 636.221 183.683 631.741 186.672C616.809 196.381 599.637 201.604 580.97 201.604C562.304 201.604 544.382 196.375 530.2 186.672C525.721 183.688 521.241 182.938 516.012 182.938L504.814 183.683C502.574 183.683 499.585 184.427 497.345 184.427C501.824 194.881 504.814 206.078 504.064 218.777L499.585 353.177C526.465 355.416 553.345 356.161 580.97 356.161C614.569 356.161 648.167 354.666 680.277 351.682C693.714 350.937 703.422 339.734 704.917 327.042L710.146 242.667C710.886 212.053 687.739 185.922 657.125 183.683L657.127 183.683Z" fill="#1583FD"/>
<path d="M657.873 109.016C657.873 151.489 623.442 185.923 580.967 185.923C538.494 185.923 504.06 151.491 504.06 109.016C504.06 66.5426 538.492 32.1093 580.967 32.1093C623.44 32.1093 657.873 66.5413 657.873 109.016Z" fill="#1583FD"/>
<path d="M433.874 157.549L422.676 156.805C417.446 156.805 412.223 157.549 407.744 160.539C392.812 170.247 374.145 176.222 354.728 176.222C335.316 176.222 317.394 170.248 301.712 160.539C297.232 157.555 292.003 156.805 286.78 156.805L275.582 157.549C244.222 159.789 219.582 186.669 221.822 218.028L227.051 371.841C227.796 385.279 238.249 396.481 252.436 397.977C285.291 400.962 319.634 402.457 355.478 402.457C390.571 402.457 424.915 400.962 458.519 397.977C471.956 396.483 483.159 386.03 483.904 371.841L489.134 218.028C489.873 186.668 465.983 159.788 433.874 157.549Z" fill="#1583FD"/>
<path d="M434.62 79.896C434.62 124.016 398.85 159.787 354.724 159.787C310.599 159.787 274.828 124.016 274.828 79.896C274.828 35.7707 310.599 0 354.724 0C398.85 0 434.62 35.7707 434.62 79.896Z" fill="#1583FD"/>
</svg>
